<svg xmlns="http://www.w3.org/2000/svg" viewBox="0 0 238 360" width="238" height="360"><rect width="100%" height="100%" fill="#fff"/><path d="M27 42 V324.0" stroke="#6b6b6b" stroke-width="1" fill="none"/><text x="24" y="40.0" font-family="'DejaVu Sans',sans-serif" font-size="11" fill="#1a1a1a" font-weight="bold">my-app/</text><path d="M27 60.0 H42" stroke="#6b6b6b" stroke-width="1" fill="none"/><path d="M49 66 V180.0" stroke="#6b6b6b" stroke-width="1" fill="none"/><text x="46" y="64.0" font-family="'DejaVu Sans',sans-serif" font-size="11" fill="#1a1a1a" font-weight="bold">src/</text><path d="M49 84.0 H64" stroke="#6b6b6b" stroke-width="1" fill="none"/><path d="M71 90 V132.0" stroke="#6b6b6b" stroke-width="1" fill="none"/><text x="68" y="88.0" font-family="'DejaVu Sans',sans-serif" font-size="11" fill="#1a1a1a" font-weight="bold">components/</text><path d="M71 108.0 H86" stroke="#6b6b6b" stroke-width="1" fill="none"/><text x="90" y="112.0" font-family="'DejaVu Sans',sans-serif" font-size="11" fill="#1a1a1a">Button.tsx</text><path d="M71 132.0 H86" stroke="#6b6b6b" stroke-width="1" fill="none"/><text x="90" y="136.0" font-family="'DejaVu Sans',sans-serif" font-size="11" fill="#6b6b6b" font-style="italic">… 12 more files</text><path d="M49 156.0 H64" stroke="#6b6b6b" stroke-width="1" fill="none"/><text x="68" y="160.0" font-family="'DejaVu Sans',sans-serif" font-size="11" fill="#1a1a1a">index.ts</text><text x="130.4" y="160.0" font-family="'DejaVu Sans',sans-serif" font-size="10" font-style="italic" fill="#6b6b6b">— entry point</text><path d="M49 180.0 H64" stroke="#6b6b6b" stroke-width="1" fill="none"/><text x="68" y="184.0" font-family="'DejaVu Sans',sans-serif" font-size="11" fill="#1a1a1a">utils<tspan fill="#6b6b6b"> → ../shared/utils</tspan></text><path d="M27 204.0 H42" stroke="#6b6b6b" stroke-width="1" fill="none"/><path d="M49 210 V228.0" stroke="#6b6b6b" stroke-width="1" fill="none"/><text x="46" y="208.0" font-family="'DejaVu Sans',sans-serif" font-size="11" fill="#1a1a1a" font-weight="bold">tests/</text><path d="M49 228.0 H64" stroke="#6b6b6b" stroke-width="1" fill="none"/><text x="68" y="232.0" font-family="'DejaVu Sans',sans-serif" font-size="11" fill="#1a1a1a">index.test.ts</text><rect x="157.89999999999998" y="221.0" width="49.5" height="14" rx="7" fill="none" stroke="#1a1a1a" stroke-width="1"/><text x="164.89999999999998" y="231.5" font-family="'DejaVu Sans',sans-serif" font-size="9" fill="#1a1a1a">+ added</text><path d="M27 252.0 H42" stroke="#6b6b6b" stroke-width="1" fill="none"/><text x="46" y="256.0" font-family="'DejaVu Sans',sans-serif" font-size="11" fill="#1a1a1a" font-weight="bold">dist/</text><text x="92.02000000000001" y="256.0" font-family="'DejaVu Sans',sans-serif" font-size="10" font-style="italic" fill="#6b6b6b">— empty, git-ignored</text><path d="M27 276.0 H42" stroke="#6b6b6b" stroke-width="1" fill="none"/><text x="46" y="280.0" font-family="'DejaVu Sans',sans-serif" font-size="11" fill="#1a1a1a">.gitignore</text><path d="M27 300.0 H42" stroke="#6b6b6b" stroke-width="1" fill="none"/><text x="46" y="304.0" font-family="'DejaVu Sans',sans-serif" font-size="11" fill="#1a1a1a">package.json</text><rect x="129.6" y="293.0" width="62.1" height="14" rx="7" fill="none" stroke="#1a1a1a" stroke-width="1"/><text x="136.6" y="303.5" font-family="'DejaVu Sans',sans-serif" font-size="9" fill="#1a1a1a">~ changed</text><path d="M27 324.0 H42" stroke="#6b6b6b" stroke-width="1" fill="none"/><text x="46" y="328.0" font-family="'DejaVu Sans',sans-serif" font-size="11" fill="#1a1a1a">README.md</text></svg>