<svg xmlns="http://www.w3.org/2000/svg" viewBox="-0.75 -0.75 665.5 422.3" role="img" aria-labelledby="dsc5ba9fdd8d-title dsc5ba9fdd8d-desc"><title id="dsc5ba9fdd8d-title">Where the week went</title><desc id="dsc5ba9fdd8d-desc">Build and run hours piled on each other quarter by quarter, against the capacity that was available for both.</desc><defs><pattern id="dsc5ba9fdd8d-dots" width="7" height="7" patternUnits="userSpaceOnUse"><circle cx="3" cy="3" r="1.1" fill="currentColor" fill-opacity="0.4"/></pattern><pattern id="dsc5ba9fdd8d-hatch" width="5" height="5" patternUnits="userSpaceOnUse"><path d="M 0 5 L 5 0" stroke="currentColor" stroke-width="0.7" stroke-opacity="0.4"/></pattern></defs><polygon points="139.244,205.243 219.884,205.243 219.884,320.878 139.244,320.878" fill="url(#dsc5ba9fdd8d-dots)" stroke="currentColor" stroke-width="1.5"/><polygon points="254.443,182.116 335.082,182.116 335.082,320.878 254.443,320.878" fill="url(#dsc5ba9fdd8d-dots)" stroke="currentColor" stroke-width="1.5"/><polygon points="369.642,216.807 450.281,216.807 450.281,320.878 369.642,320.878" fill="url(#dsc5ba9fdd8d-dots)" stroke="currentColor" stroke-width="1.5"/><polygon points="484.841,234.152 565.48,234.152 565.48,320.878 484.841,320.878" fill="url(#dsc5ba9fdd8d-dots)" stroke="currentColor" stroke-width="1.5"/><polygon points="139.244,124.299 219.884,124.299 219.884,205.243 139.244,205.243" fill="url(#dsc5ba9fdd8d-hatch)" stroke="currentColor" stroke-width="1.5"/><polygon points="254.443,112.735 335.082,112.735 335.082,182.116 254.443,182.116" fill="url(#dsc5ba9fdd8d-hatch)" stroke="currentColor" stroke-width="1.5"/><polygon points="369.642,101.172 450.281,101.172 450.281,216.807 369.642,216.807" fill="url(#dsc5ba9fdd8d-hatch)" stroke="currentColor" stroke-width="1.5"/><polygon points="484.841,89.608 565.48,89.608 565.48,234.152 484.841,234.152" fill="url(#dsc5ba9fdd8d-hatch)" stroke="currentColor" stroke-width="1.5"/><path d="M 64.365 33.641 L 64.365 320.878" fill="none" stroke="currentColor" stroke-width="1"/><path d="M 64.365 320.878 L 640.359 320.878" fill="none" stroke="currentColor" stroke-width="1"/><path d="M 64.365 320.878 L 64.365 328.878" fill="none" stroke="currentColor" stroke-width="1"/><path d="M 179.564 320.878 L 179.564 328.878" fill="none" stroke="currentColor" stroke-width="1"/><path d="M 294.763 320.878 L 294.763 328.878" fill="none" stroke="currentColor" stroke-width="1"/><path d="M 409.962 320.878 L 409.962 328.878" fill="none" stroke="currentColor" stroke-width="1"/><path d="M 525.161 320.878 L 525.161 328.878" fill="none" stroke="currentColor" stroke-width="1"/><path d="M 640.359 320.878 L 640.359 328.878" fill="none" stroke="currentColor" stroke-width="1"/><path d="M 56.365 320.878 L 64.365 320.878" fill="none" stroke="currentColor" stroke-width="1"/><path d="M 56.365 263.061 L 64.365 263.061" fill="none" stroke="currentColor" stroke-width="1"/><path d="M 56.365 205.243 L 64.365 205.243" fill="none" stroke="currentColor" stroke-width="1"/><path d="M 56.365 147.426 L 64.365 147.426" fill="none" stroke="currentColor" stroke-width="1"/><path d="M 56.365 89.608 L 64.365 89.608" fill="none" stroke="currentColor" stroke-width="1"/><text x="64.365" y="348.16" font-family="'DejaVu Sans', sans-serif" font-size="10" fill="currentColor" text-anchor="middle">0</text><text x="179.564" y="348.16" font-family="'DejaVu Sans', sans-serif" font-size="10" fill="currentColor" text-anchor="middle">1</text><text x="294.763" y="348.16" font-family="'DejaVu Sans', sans-serif" font-size="10" fill="currentColor" text-anchor="middle">2</text><text x="409.962" y="348.16" font-family="'DejaVu Sans', sans-serif" font-size="10" fill="currentColor" text-anchor="middle">3</text><text x="525.161" y="348.16" font-family="'DejaVu Sans', sans-serif" font-size="10" fill="currentColor" text-anchor="middle">4</text><text x="640.359" y="348.16" font-family="'DejaVu Sans', sans-serif" font-size="10" fill="currentColor" text-anchor="middle">5</text><text x="46.365" y="324.34" font-family="'DejaVu Sans', sans-serif" font-size="10" fill="currentColor" text-anchor="end">0</text><text x="46.365" y="266.523" font-family="'DejaVu Sans', sans-serif" font-size="10" fill="currentColor" text-anchor="end">10</text><text x="46.365" y="208.705" font-family="'DejaVu Sans', sans-serif" font-size="10" fill="currentColor" text-anchor="end">20</text><text x="46.365" y="150.887" font-family="'DejaVu Sans', sans-serif" font-size="10" fill="currentColor" text-anchor="end">30</text><text x="46.365" y="93.07" font-family="'DejaVu Sans', sans-serif" font-size="10" fill="currentColor" text-anchor="end">40</text><text x="352.362" y="369.801" font-family="'DejaVu Sans', sans-serif" font-size="10" fill="currentColor" text-anchor="middle">Quarter</text><text x="21.282" y="177.259" font-family="'DejaVu Sans', sans-serif" font-size="10" fill="currentColor" text-anchor="middle" transform="rotate(-90 21.282 177.259)">Hours</text><path d="M 64.365 397.98 L 83.223 397.98" fill="none" stroke="currentColor" stroke-width="1.5"/><text x="88.223" y="401.442" font-family="'DejaVu Sans', sans-serif" font-size="10" fill="currentColor">Capacity</text><polygon points="141.924,392.741 160.782,392.741 160.782,403.218 141.924,403.218" fill="url(#dsc5ba9fdd8d-dots)" stroke="currentColor" stroke-width="1.5"/><text x="165.782" y="401.442" font-family="'DejaVu Sans', sans-serif" font-size="10" fill="currentColor">Build</text><polygon points="200.885,392.741 219.742,392.741 219.742,403.218 200.885,403.218" fill="url(#dsc5ba9fdd8d-hatch)" stroke="currentColor" stroke-width="1.5"/><text x="224.742" y="401.442" font-family="'DejaVu Sans', sans-serif" font-size="10" fill="currentColor">Run</text><text x="179.564" y="220.525" font-family="'DejaVu Sans', sans-serif" font-size="10" fill="currentColor" text-anchor="middle">20</text><text x="294.763" y="197.398" font-family="'DejaVu Sans', sans-serif" font-size="10" fill="currentColor" text-anchor="middle">24</text><text x="409.962" y="232.089" font-family="'DejaVu Sans', sans-serif" font-size="10" fill="currentColor" text-anchor="middle">18</text><text x="525.161" y="249.434" font-family="'DejaVu Sans', sans-serif" font-size="10" fill="currentColor" text-anchor="middle">15</text><text x="179.564" y="139.581" font-family="'DejaVu Sans', sans-serif" font-size="10" fill="currentColor" text-anchor="middle">14</text><text x="294.763" y="128.017" font-family="'DejaVu Sans', sans-serif" font-size="10" fill="currentColor" text-anchor="middle">12</text><text x="409.962" y="116.454" font-family="'DejaVu Sans', sans-serif" font-size="10" fill="currentColor" text-anchor="middle">20</text><text x="525.161" y="104.89" font-family="'DejaVu Sans', sans-serif" font-size="10" fill="currentColor" text-anchor="middle">25</text><path d="M 179.564 66.481 L 294.763 78.044 L 409.962 66.481 L 525.161 54.917" fill="none" stroke="currentColor" stroke-width="1.5"/><ellipse cx="179.564" cy="66.481" rx="3.2" ry="3.2" fill="none" stroke="currentColor" stroke-width="1.5"/><ellipse cx="294.763" cy="78.044" rx="3.2" ry="3.2" fill="none" stroke="currentColor" stroke-width="1.5"/><ellipse cx="409.962" cy="66.481" rx="3.2" ry="3.2" fill="none" stroke="currentColor" stroke-width="1.5"/><ellipse cx="525.161" cy="54.917" rx="3.2" ry="3.2" fill="none" stroke="currentColor" stroke-width="1.5"/><text x="179.564" y="54.123" font-family="'DejaVu Sans', sans-serif" font-size="10" fill="currentColor" text-anchor="middle">44</text><text x="294.763" y="65.686" font-family="'DejaVu Sans', sans-serif" font-size="10" fill="currentColor" text-anchor="middle">42</text><text x="409.962" y="54.123" font-family="'DejaVu Sans', sans-serif" font-size="10" fill="currentColor" text-anchor="middle">44</text><text x="525.161" y="74.2" font-family="'DejaVu Sans', sans-serif" font-size="10" fill="currentColor" text-anchor="middle">46</text></svg>