<svg xmlns="http://www.w3.org/2000/svg" viewBox="-0.75 -0.75 641.5 398.3" role="img" aria-labelledby="ds401a1131f1-title ds401a1131f1-desc"><title id="ds401a1131f1-title">Who manages what, as you move up the stack</title><desc id="ds401a1131f1-desc">The shared-responsibility model is not a table: it is how much of each service model the customer is still holding. Three columns, each piled to the same total, and what the drawing says is the proportion.</desc><defs><pattern id="ds401a1131f1-dots" width="7" height="7" patternUnits="userSpaceOnUse"><circle cx="3" cy="3" r="1.1" fill="currentColor" fill-opacity="0.4"/></pattern><pattern id="ds401a1131f1-hatch" width="5" height="5" patternUnits="userSpaceOnUse"><path d="M 0 5 L 5 0" stroke="currentColor" stroke-width="0.7" stroke-opacity="0.4"/></pattern></defs><polygon points="103.165,219.82 227.589,219.82 227.589,307.019 103.165,307.019" fill="url(#ds401a1131f1-dots)" stroke="currentColor" stroke-width="1.5"/><polygon points="280.914,129.979 405.338,129.979 405.338,307.019 280.914,307.019" fill="url(#ds401a1131f1-dots)" stroke="currentColor" stroke-width="1.5"/><polygon points="458.663,87.7 583.087,87.7 583.087,307.019 458.663,307.019" fill="url(#ds401a1131f1-dots)" stroke="currentColor" stroke-width="1.5"/><polygon points="103.165,42.78 227.589,42.78 227.589,219.82 103.165,219.82" fill="url(#ds401a1131f1-hatch)" stroke="currentColor" stroke-width="1.5"/><polygon points="280.914,42.78 405.338,42.78 405.338,129.979 280.914,129.979" fill="url(#ds401a1131f1-hatch)" stroke="currentColor" stroke-width="1.5"/><polygon points="458.663,42.78 583.087,42.78 583.087,87.7 458.663,87.7" fill="url(#ds401a1131f1-hatch)" stroke="currentColor" stroke-width="1.5"/><path d="M 58.728 21.641 L 58.728 307.019" fill="none" stroke="currentColor" stroke-width="1"/><path d="M 58.728 307.019 L 627.524 307.019" fill="none" stroke="currentColor" stroke-width="1"/><path d="M 165.377 307.019 L 165.377 315.019" fill="none" stroke="currentColor" stroke-width="1"/><path d="M 343.126 307.019 L 343.126 315.019" fill="none" stroke="currentColor" stroke-width="1"/><path d="M 520.875 307.019 L 520.875 315.019" fill="none" stroke="currentColor" stroke-width="1"/><path d="M 50.728 307.019 L 58.728 307.019" fill="none" stroke="currentColor" stroke-width="1"/><path d="M 50.728 240.959 L 58.728 240.959" fill="none" stroke="currentColor" stroke-width="1"/><path d="M 50.728 174.899 L 58.728 174.899" fill="none" stroke="currentColor" stroke-width="1"/><path d="M 50.728 108.839 L 58.728 108.839" fill="none" stroke="currentColor" stroke-width="1"/><path d="M 50.728 42.78 L 58.728 42.78" fill="none" stroke="currentColor" stroke-width="1"/><text x="165.377" y="334.301" font-family="'DejaVu Sans', sans-serif" font-size="10" fill="currentColor" text-anchor="middle">IaaS</text><text x="343.126" y="334.301" font-family="'DejaVu Sans', sans-serif" font-size="10" fill="currentColor" text-anchor="middle">PaaS</text><text x="520.875" y="334.301" font-family="'DejaVu Sans', sans-serif" font-size="10" fill="currentColor" text-anchor="middle">SaaS</text><text x="40.728" y="310.481" font-family="'DejaVu Sans', sans-serif" font-size="10" fill="currentColor" text-anchor="end">0</text><text x="40.728" y="244.421" font-family="'DejaVu Sans', sans-serif" font-size="10" fill="currentColor" text-anchor="end">25</text><text x="40.728" y="178.361" font-family="'DejaVu Sans', sans-serif" font-size="10" fill="currentColor" text-anchor="end">50</text><text x="40.728" y="112.301" font-family="'DejaVu Sans', sans-serif" font-size="10" fill="currentColor" text-anchor="end">75</text><text x="40.728" y="46.242" font-family="'DejaVu Sans', sans-serif" font-size="10" fill="currentColor" text-anchor="end">100</text><text x="343.126" y="357.801" font-family="'DejaVu Sans', sans-serif" font-size="10" fill="currentColor" text-anchor="middle">What you rent</text><text x="9.282" y="164.33" font-family="'DejaVu Sans', sans-serif" font-size="10" fill="currentColor" text-anchor="middle" transform="rotate(-90 9.282 164.33)">Share of the stack you manage (%)</text><polygon points="58.728,380.741 77.585,380.741 77.585,391.218 58.728,391.218" fill="url(#ds401a1131f1-dots)" stroke="currentColor" stroke-width="1.5"/><text x="82.585" y="389.442" font-family="'DejaVu Sans', sans-serif" font-size="10" fill="currentColor">The provider</text><polygon points="156.028,380.741 174.886,380.741 174.886,391.218 156.028,391.218" fill="url(#ds401a1131f1-hatch)" stroke="currentColor" stroke-width="1.5"/><text x="179.886" y="389.442" font-family="'DejaVu Sans', sans-serif" font-size="10" fill="currentColor">You</text></svg>