<svg xmlns="http://www.w3.org/2000/svg" viewBox="-1.25 -1.25 666.5 462.15" role="img" aria-labelledby="ds882016b813-title ds882016b813-desc"><title id="ds882016b813-title">The same critical path, with colour doing the pointing</title><desc id="ds882016b813-desc">The accent theme. Colour marks the run with no slack in it and the box that ends the job; it says nothing a black-and-white printer would lose, because the weight already said it.</desc><path d="M 304.74 63.7 L 304.74 87.7 L 253.787 87.7 L 253.787 111.7" fill="none" stroke="#c0452a" stroke-width="2.5"/><polygon points="253.787,111.7 247.787,98.367 259.787,98.367" fill="#c0452a" stroke="none"/><path d="M 330.261 63.7 L 330.261 87.7 L 381.215 87.7 L 381.215 111.7" fill="none" stroke="currentColor" stroke-width="1.5"/><polygon points="381.215,111.7 377.615,103.7 384.815,103.7" fill="currentColor" stroke="none"/><path d="M 253.787 163.4 L 253.787 211.4" fill="none" stroke="#c0452a" stroke-width="2.5"/><polygon points="253.787,211.4 247.787,198.067 259.787,198.067" fill="#c0452a" stroke="none"/><path d="M 253.787 263.1 L 253.787 287.1 L 307.785 287.1 L 307.785 311.1" fill="none" stroke="#c0452a" stroke-width="2.5"/><polygon points="307.785,311.1 301.785,297.767 313.785,297.767" fill="#c0452a" stroke="none"/><path d="M 381.215 163.4 L 381.215 287.1 L 327.217 287.1 L 327.217 311.1" fill="none" stroke="currentColor" stroke-width="1.5"/><polygon points="327.217,311.1 323.617,303.1 330.817,303.1" fill="currentColor" stroke="none"/><path d="M 317.501 362.8 L 317.501 410.8" fill="none" stroke="#7c8794" stroke-width="1"/><text x="317.501" y="432.033" font-family="'DejaVu Sans', sans-serif" font-size="11" fill="currentColor" text-anchor="middle"><tspan>Every hand-over is signed off</tspan></text><rect x="216.572" y="211.4" width="74.429" height="51.7" rx="4" fill="none" stroke="#c0452a" stroke-width="2.5"/><text x="253.787" y="232.633" font-family="'DejaVu Sans', sans-serif" font-size="11" fill="currentColor" text-anchor="middle"><tspan font-weight="bold">Build</tspan></text><text x="253.787" y="247.483" font-family="'DejaVu Sans', sans-serif" font-size="11" fill="currentColor" text-anchor="middle"><tspan font-weight="bold">8 weeks</tspan></text><rect x="216.572" y="111.7" width="74.429" height="51.7" rx="4" fill="none" stroke="#c0452a" stroke-width="2.5"/><text x="253.787" y="132.933" font-family="'DejaVu Sans', sans-serif" font-size="11" fill="currentColor" text-anchor="middle"><tspan font-weight="bold">Design</tspan></text><text x="253.787" y="147.783" font-family="'DejaVu Sans', sans-serif" font-size="11" fill="currentColor" text-anchor="middle"><tspan font-weight="bold">3 weeks</tspan></text><rect x="268.921" y="311.1" width="97.159" height="51.7" rx="25.85" fill="none" stroke="#c0452a" stroke-width="2.5"/><text x="317.501" y="332.333" font-family="'DejaVu Sans', sans-serif" font-size="11" fill="currentColor" text-anchor="middle"><tspan font-weight="bold">Hand over</tspan></text><text x="317.501" y="347.183" font-family="'DejaVu Sans', sans-serif" font-size="11" fill="currentColor" text-anchor="middle"><tspan font-weight="bold">4 weeks</tspan></text><rect x="315.001" y="111.7" width="132.426" height="51.7" rx="4" fill="none" stroke="currentColor" stroke-width="1.5"/><text x="381.215" y="132.933" font-family="'DejaVu Sans', sans-serif" font-size="11" fill="currentColor" text-anchor="middle"><tspan font-weight="bold">Apply for permits</tspan></text><text x="381.215" y="147.783" font-family="'DejaVu Sans', sans-serif" font-size="11" fill="currentColor" text-anchor="middle"><tspan>6 weeks</tspan></text><rect x="253.697" y="12" width="127.607" height="51.7" rx="25.85" fill="none" stroke="currentColor" stroke-width="1.5"/><text x="317.501" y="33.233" font-family="'DejaVu Sans', sans-serif" font-size="11" fill="currentColor" text-anchor="middle"><tspan font-weight="bold">Survey the site</tspan></text><text x="317.501" y="48.083" font-family="'DejaVu Sans', sans-serif" font-size="11" fill="currentColor" text-anchor="middle"><tspan font-weight="bold">3 weeks</tspan></text><text x="294.143" y="101.732" font-family="'DejaVu Sans', sans-serif" font-size="10" fill="currentColor">5 weeks of slack</text></svg>