<svg xmlns="http://www.w3.org/2000/svg" viewBox="-1.25 -1.25 642.5 511.85" role="img" aria-labelledby="ds3d29082444-title ds3d29082444-desc"><title id="ds3d29082444-title">Where a decision is taken</title><desc id="ds3d29082444-desc">Which decisions belong to the author, which to the theme, and which to the tool.</desc><path d="M 189.363 246.92 L 214.554 246.92 L 214.554 178.975 L 238.554 178.975" fill="none" stroke="currentColor" stroke-width="1.5"/><polygon points="238.554,178.975 232.554,181.375 232.554,176.575" fill="currentColor" stroke="none"/><path d="M 190.554 254.675 L 238.554 254.675" fill="none" stroke="currentColor" stroke-width="1.5"/><polygon points="238.554,254.675 232.554,257.075 232.554,252.275" fill="currentColor" stroke="none"/><path d="M 189.363 262.43 L 214.554 262.43 L 214.554 330.375 L 238.554 330.375" fill="none" stroke="currentColor" stroke-width="1.5"/><polygon points="238.554,330.375 232.554,332.775 232.554,327.975" fill="currentColor" stroke="none"/><path d="M 393.265 173.805 L 414.265 173.805 L 414.265 49.85 L 441.265 49.85" fill="none" stroke="currentColor" stroke-width="1.5"/><polygon points="441.265,49.85 435.265,52.25 435.265,47.45" fill="currentColor" stroke="none"/><path d="M 393.265 184.145 L 420.265 184.145 L 420.265 125.55 L 441.265 125.55" fill="none" stroke="currentColor" stroke-width="1.5"/><polygon points="441.265,125.55 435.265,127.95 435.265,123.15" fill="currentColor" stroke="none"/><path d="M 393.265 249.505 L 417.265 249.505 L 417.265 201.25 L 441.265 201.25" fill="none" stroke="currentColor" stroke-width="1.5"/><polygon points="441.265,201.25 435.265,203.65 435.265,198.85" fill="currentColor" stroke="none"/><path d="M 393.265 259.845 L 417.265 259.845 L 417.265 276.95 L 441.265 276.95" fill="none" stroke="currentColor" stroke-width="1.5"/><polygon points="441.265,276.95 435.265,279.35 435.265,274.55" fill="currentColor" stroke="none"/><path d="M 393.265 330.375 L 414.265 330.375 L 414.265 406.075 L 444.593 406.075" fill="none" stroke="currentColor" stroke-width="1.5"/><polygon points="444.593,406.075 438.593,408.475 438.593,403.675" fill="currentColor" stroke="none"/><path d="M 393.265 322.62 L 418.929 322.62 L 418.929 345.225 L 444.593 345.225" fill="none" stroke="currentColor" stroke-width="1.5"/><polygon points="444.593,345.225 438.593,347.625 438.593,342.825" fill="currentColor" stroke="none"/><path d="M 393.265 338.13 L 420.265 338.13 L 420.265 466.925 L 444.593 466.925" fill="none" stroke="currentColor" stroke-width="1.5"/><polygon points="444.593,466.925 438.593,469.325 438.593,464.525" fill="currentColor" stroke="none"/><rect x="238.554" y="153.125" width="154.711" height="51.7" rx="4" fill="none" stroke="currentColor" stroke-width="1.5"/><text x="315.909" y="181.783" font-family="'DejaVu Sans', sans-serif" font-size="11" fill="currentColor" text-anchor="middle"><tspan>The author decides</tspan></text><rect x="444.593" y="326.8" width="148.055" height="36.85" rx="18.425" fill="none" stroke="currentColor" stroke-width="2.5"/><text x="518.62" y="348.033" font-family="'DejaVu Sans', sans-serif" font-size="11" fill="currentColor" text-anchor="middle"><tspan>Where the lines break</tspan></text><rect x="444.593" y="387.65" width="148.055" height="36.85" rx="18.425" fill="none" stroke="currentColor" stroke-width="2.5"/><text x="518.62" y="408.883" font-family="'DejaVu Sans', sans-serif" font-size="11" fill="currentColor" text-anchor="middle"><tspan>Every coordinate</tspan></text><rect x="444.593" y="448.5" width="148.055" height="36.85" rx="18.425" fill="none" stroke="currentColor" stroke-width="2.5"/><text x="518.62" y="469.733" font-family="'DejaVu Sans', sans-serif" font-size="11" fill="currentColor" text-anchor="middle"><tspan>Whether it fits at all</tspan></text><rect x="441.265" y="24" width="154.711" height="51.7" rx="4" fill="none" stroke="currentColor" stroke-width="1.5"/><text x="518.62" y="45.233" font-family="'DejaVu Sans', sans-serif" font-size="11" fill="currentColor" text-anchor="middle"><tspan>What the diagram</tspan></text><text x="518.62" y="60.083" font-family="'DejaVu Sans', sans-serif" font-size="11" fill="currentColor" text-anchor="middle"><tspan>means</tspan></text><rect x="441.265" y="99.7" width="154.711" height="51.7" rx="4" fill="none" stroke="currentColor" stroke-width="1.5"/><text x="518.62" y="120.933" font-family="'DejaVu Sans', sans-serif" font-size="11" fill="currentColor" text-anchor="middle"><tspan>Which semantic role</tspan></text><text x="518.62" y="135.783" font-family="'DejaVu Sans', sans-serif" font-size="11" fill="currentColor" text-anchor="middle"><tspan>each part has</tspan></text><rect x="44.024" y="228.825" width="146.53" height="51.7" rx="25.85" fill="none" stroke="currentColor" stroke-width="1.5"/><text x="117.289" y="250.058" font-family="'DejaVu Sans', sans-serif" font-size="11" fill="currentColor" text-anchor="middle"><tspan>A decision about the</tspan></text><text x="117.289" y="264.908" font-family="'DejaVu Sans', sans-serif" font-size="11" fill="currentColor" text-anchor="middle"><tspan>drawing</tspan></text><rect x="441.265" y="175.4" width="154.711" height="51.7" rx="4" fill="none" stroke="currentColor" stroke-width="1.5"/><text x="518.62" y="204.058" font-family="'DejaVu Sans', sans-serif" font-size="11" fill="currentColor" text-anchor="middle"><tspan>What a role looks like</tspan></text><rect x="238.554" y="228.825" width="154.711" height="51.7" rx="4" fill="none" stroke="currentColor" stroke-width="1.5"/><text x="315.909" y="257.483" font-family="'DejaVu Sans', sans-serif" font-size="11" fill="currentColor" text-anchor="middle"><tspan>The theme decides</tspan></text><rect x="238.554" y="304.525" width="154.711" height="51.7" rx="4" fill="none" stroke="currentColor" stroke-width="1.5"/><text x="315.909" y="333.183" font-family="'DejaVu Sans', sans-serif" font-size="11" fill="currentColor" text-anchor="middle"><tspan>The tool decides</tspan></text><rect x="441.265" y="251.1" width="154.711" height="51.7" rx="4" fill="none" stroke="currentColor" stroke-width="1.5"/><text x="518.62" y="272.333" font-family="'DejaVu Sans', sans-serif" font-size="11" fill="currentColor" text-anchor="middle"><tspan>Which size each level is</tspan></text><text x="518.62" y="287.183" font-family="'DejaVu Sans', sans-serif" font-size="11" fill="currentColor" text-anchor="middle"><tspan>set at</tspan></text></svg>