<svg xmlns="http://www.w3.org/2000/svg" viewBox="-1.25 -1.25 666.5 473" role="img" aria-labelledby="dsed915ee9c8-title dsed915ee9c8-desc"><title id="dsed915ee9c8-title">Where a decision is taken</title><desc id="dsed915ee9c8-desc">Which decisions belong to the author, which to the theme, and which to the tool.</desc><path d="M 201.363 229.409 L 226.554 229.409 L 226.554 176.314 L 250.554 176.314" fill="none" stroke="currentColor" stroke-width="1.5"/><polygon points="250.554,176.314 242.554,179.914 242.554,172.714" fill="currentColor" stroke="none"/><path d="M 202.554 237.164 L 250.554 237.164" fill="none" stroke="currentColor" stroke-width="1.5"/><polygon points="250.554,237.164 242.554,240.764 242.554,233.564" fill="currentColor" stroke="none"/><path d="M 201.363 244.919 L 226.554 244.919 L 226.554 298.014 L 250.554 298.014" fill="none" stroke="currentColor" stroke-width="1.5"/><polygon points="250.554,298.014 242.554,301.614 242.554,294.414" fill="currentColor" stroke="none"/><path d="M 405.265 172.629 L 423.265 172.629 L 423.265 37.85 L 453.265 37.85" fill="none" stroke="currentColor" stroke-width="1.5"/><polygon points="453.265,37.85 445.265,41.45 445.265,34.25" fill="currentColor" stroke="none"/><path d="M 405.265 179.999 L 435.265 179.999 L 435.265 113.55 L 453.265 113.55" fill="none" stroke="currentColor" stroke-width="1.5"/><polygon points="453.265,113.55 445.265,117.15 445.265,109.95" fill="currentColor" stroke="none"/><path d="M 405.265 233.479 L 429.265 233.479 L 429.265 181.825 L 453.265 181.825" fill="none" stroke="currentColor" stroke-width="1.5"/><polygon points="453.265,181.825 445.265,185.425 445.265,178.225" fill="currentColor" stroke="none"/><path d="M 405.265 250.1 L 453.265 250.1" fill="none" stroke="currentColor" stroke-width="1.5"/><polygon points="453.265,250.1 445.265,253.7 445.265,246.5" fill="currentColor" stroke="none"/><path d="M 405.265 292.487 L 441.265 292.487 L 441.265 318.375 L 456.593 318.375" fill="none" stroke="currentColor" stroke-width="1.5"/><polygon points="456.593,318.375 448.593,321.975 448.593,314.775" fill="currentColor" stroke="none"/><path d="M 405.265 298.014 L 429.265 298.014 L 429.265 379.225 L 456.593 379.225" fill="none" stroke="currentColor" stroke-width="1.5"/><polygon points="456.593,379.225 448.593,382.825 448.593,375.625" fill="currentColor" stroke="none"/><path d="M 405.265 303.542 L 417.265 303.542 L 417.265 440.075 L 456.593 440.075" fill="none" stroke="currentColor" stroke-width="1.5"/><polygon points="456.593,440.075 448.593,443.675 448.593,436.475" fill="currentColor" stroke="none"/><rect x="250.554" y="157.889" width="154.711" height="36.85" rx="4" fill="none" stroke="currentColor" stroke-width="1.5"/><text x="327.909" y="179.122" font-family="'DejaVu Sans', sans-serif" font-size="11" fill="currentColor" text-anchor="middle"><tspan>The author decides</tspan></text><rect x="456.593" y="360.8" width="148.055" height="36.85" rx="18.425" fill="none" stroke="currentColor" stroke-width="2.5"/><text x="530.62" y="382.033" font-family="'DejaVu Sans', sans-serif" font-size="11" fill="currentColor" text-anchor="middle"><tspan>Where the lines break</tspan></text><rect x="456.593" y="299.95" width="148.055" height="36.85" rx="18.425" fill="none" stroke="currentColor" stroke-width="2.5"/><text x="530.62" y="321.183" font-family="'DejaVu Sans', sans-serif" font-size="11" fill="currentColor" text-anchor="middle"><tspan>Every coordinate</tspan></text><rect x="456.593" y="421.65" width="148.055" height="36.85" rx="18.425" fill="none" stroke="currentColor" stroke-width="2.5"/><text x="530.62" y="442.883" font-family="'DejaVu Sans', sans-serif" font-size="11" fill="currentColor" text-anchor="middle"><tspan>Whether it fits at all</tspan></text><rect x="453.265" y="12" width="154.711" height="51.7" rx="4" fill="none" stroke="currentColor" stroke-width="1.5"/><text x="530.62" y="33.233" font-family="'DejaVu Sans', sans-serif" font-size="11" fill="currentColor" text-anchor="middle"><tspan>What the diagram</tspan></text><text x="530.62" y="48.083" font-family="'DejaVu Sans', sans-serif" font-size="11" fill="currentColor" text-anchor="middle"><tspan>means</tspan></text><rect x="453.265" y="87.7" width="154.711" height="51.7" rx="4" fill="none" stroke="currentColor" stroke-width="1.5"/><text x="530.62" y="108.933" font-family="'DejaVu Sans', sans-serif" font-size="11" fill="currentColor" text-anchor="middle"><tspan>Which semantic role</tspan></text><text x="530.62" y="123.783" font-family="'DejaVu Sans', sans-serif" font-size="11" fill="currentColor" text-anchor="middle"><tspan>each part has</tspan></text><rect x="56.024" y="211.314" width="146.53" height="51.7" rx="25.85" fill="none" stroke="currentColor" stroke-width="1.5"/><text x="129.289" y="232.547" font-family="'DejaVu Sans', sans-serif" font-size="11" fill="currentColor" text-anchor="middle"><tspan>A decision about the</tspan></text><text x="129.289" y="247.397" font-family="'DejaVu Sans', sans-serif" font-size="11" fill="currentColor" text-anchor="middle"><tspan>drawing</tspan></text><rect x="453.265" y="163.4" width="154.711" height="36.85" rx="4" fill="none" stroke="currentColor" stroke-width="1.5"/><text x="530.62" y="184.633" font-family="'DejaVu Sans', sans-serif" font-size="11" fill="currentColor" text-anchor="middle"><tspan>What a role looks like</tspan></text><rect x="250.554" y="218.739" width="154.711" height="36.85" rx="4" fill="none" stroke="currentColor" stroke-width="1.5"/><text x="327.909" y="239.972" font-family="'DejaVu Sans', sans-serif" font-size="11" fill="currentColor" text-anchor="middle"><tspan>The theme decides</tspan></text><rect x="250.554" y="279.589" width="154.711" height="36.85" rx="4" fill="none" stroke="currentColor" stroke-width="1.5"/><text x="327.909" y="300.822" font-family="'DejaVu Sans', sans-serif" font-size="11" fill="currentColor" text-anchor="middle"><tspan>The tool decides</tspan></text><rect x="453.265" y="224.25" width="154.711" height="51.7" rx="4" fill="none" stroke="currentColor" stroke-width="1.5"/><text x="530.62" y="245.483" font-family="'DejaVu Sans', sans-serif" font-size="11" fill="currentColor" text-anchor="middle"><tspan>Which size each level is</tspan></text><text x="530.62" y="260.333" font-family="'DejaVu Sans', sans-serif" font-size="11" fill="currentColor" text-anchor="middle"><tspan>set at</tspan></text></svg>